/* XPM */
static char * D:\work\softs\FreeCAD 0_14\Mod\LCInterlocking\icons\box_xpm[] = {
"16 16 3 1",
" 	c None",
".	c #000000",
"+	c #AAAAAA",
"           .+.  ",
"          .+++. ",
"         .+++++.",
"        .+++++..",
"       .+++++.+.",
"      .+++++.++.",
"     .+++++.+++.",
"    .+++++.+++. ",
"   .+++++.+++.  ",
"  .+++++.+++.   ",
" .+.+++.+++.    ",
" .++.+.+++.     ",
" .+++.+++.      ",
"  .++.++.       ",
"   .+.+.        ",
"    ...         "};
