/* XPM */
static char * corner_xpm[] = {
"16 16 33 1",
" 	c None",
".	c #000000",
"+	c #848484",
"@	c #747474",
"#	c #585858",
"$	c #3A3A3A",
"%	c #AAAAAA",
"&	c #A7A7A7",
"*	c #7E7E7E",
"=	c #333333",
"-	c #888888",
";	c #1E1E1E",
">	c #A6A6A6",
",	c #404040",
"'	c #A9A9A9",
")	c #454545",
"!	c #2B2B2B",
"~	c #959595",
"{	c #3E3E3E",
"]	c #494949",
"^	c #A1A1A1",
"/	c #515151",
"(	c #A3A3A3",
"_	c #9C9C9C",
":	c #232323",
"<	c #A2A2A2",
"[	c #353535",
"}	c #3D3D3D",
"|	c #646464",
"1	c #8F8F8F",
"2	c #909090",
"3	c #565656",
"4	c #2E2E2E",
"...             ",
".......         ",
"+@#$.....       ",
"%%%%&*=...      ",
"%%%%%%%-;..     ",
"%%%%%%%%>,..    ",
"%%%%%%%%%')..   ",
"%%%%%%%%%%&!..  ",
"%%%%%%%%%%%~..  ",
"{]@^%%%%%%%%/.. ",
"..../(%%%%%%_.. ",
"  ...:<%%%%%%[. ",
"    ..}%%%%%%|..",
"     ..1%%%%%2..",
"     ..3%%%%%%..",
"      .4%%%%%%.."};
