/* XPM */
static char * laser_xpm[] = {
"16 16 2 1",
" 	c None",
".	c #FF0036",
"                ",
"                ",
"      .         ",
"       .        ",
"        .      .",
"          ..  . ",
"         ....   ",
"..............  ",
"..............  ",
"         ....   ",
"          ..    ",
"        .    .  ",
"       .      . ",
"      .        .",
"                ",
"                "};
