/* XPM */
static char * D:\work\softs\FreeCAD 0_14\Mod\LCInterlocking\icons\roundbox_xpm[] = {
"16 16 18 1",
" 	c None",
".	c #000000",
"+	c #858585",
"@	c #898989",
"#	c #A6A6A6",
"$	c #AAAAAA",
"%	c #808080",
"&	c #919191",
"*	c #929292",
"=	c #999999",
"-	c #A5A5A5",
";	c #878787",
">	c #8C8C8C",
",	c #9E9E9E",
"'	c #7E7E7E",
")	c #A0A0A0",
"!	c #828282",
"~	c #848484",
"                ",
"    ........    ",
"   ..........   ",
"   ..+@@@@+..   ",
"  ...#$$$$#%..  ",
"  ..&$$$$$$&..  ",
" ..%#$$$$$$#%.. ",
" ..*$$$$$$$$*.. ",
" ..&$$$$$$$$=.. ",
" ..%-$$$$$$$;.. ",
"  ..>$$$$$$,'.. ",
"  ..')$$$$$@..  ",
"   .'!~~~~~'..  ",
"   ..........   ",
"    .........   ",
"                "};
