/* XPM */
static char * t_slot_xpm[] = {
"16 16 4 1",
" 	c None",
".	c #000000",
"+	c #010101",
"@	c #AAAAAA",
"                ",
"                ",
"                ",
"                ",
"      ....      ",
"      ....      ",
" ....  .+  .... ",
" .@@.  ..  .@@. ",
"..@@........@@..",
"@@@@@@@..@@@@@@@",
"@@@@@@@..@@@@@@@",
"@@@@@@....@@@@@@",
"@@@@@@....@@@@@@",
"@@@@@@@..@@@@@@@",
"@@@@@@@@@@@@@@@@",
"@@@@@@@@@@@@@@@@"};
